<?xml version="1.0" standalone="no"?>
<!DOCTYPE svg PUBLIC "-//W3C//DTD SVG 20010904//EN"
 "http://www.w3.org/TR/2001/REC-SVG-20010904/DTD/svg10.dtd">
<svg version="1.0" xmlns="http://www.w3.org/2000/svg"
 width="344.000000pt" height="344.000000pt" viewBox="0 0 344.000000 344.000000"
 preserveAspectRatio="xMidYMid meet">

<g transform="translate(0.000000,344.000000) scale(0.100000,-0.100000)"
fill="#000000" stroke="none">
<path d="M1640 3411 c-104 -33 -346 -160 -555 -291 -323 -203 -486 -277 -645
-295 -77 -9 -114 -28 -143 -74 -25 -41 -26 -120 -2 -361 103 -1045 492 -1779
1190 -2245 160 -107 202 -128 248 -122 21 3 76 29 130 62 634 390 1027 975
1201 1790 54 250 95 572 97 757 1 139 -33 176 -184 198 -163 24 -304 91 -646
305 -277 173 -534 296 -615 294 -11 0 -46 -8 -76 -18z"/>
</g>
</svg>
