<?xml version="1.0" standalone="no"?>
<!DOCTYPE svg PUBLIC "-//W3C//DTD SVG 20010904//EN"
 "http://www.w3.org/TR/2001/REC-SVG-20010904/DTD/svg10.dtd">
<svg version="1.0" xmlns="http://www.w3.org/2000/svg"
 width="256.000000pt" height="256.000000pt" viewBox="0 0 256.000000 256.000000"
 preserveAspectRatio="xMidYMid meet">

<g transform="translate(0.000000,256.000000) scale(0.100000,-0.100000)"
fill="#000000" stroke="none">
<path d="M1448 2213 c-220 -216 -352 -425 -422 -668 -19 -64 -28 -81 -44 -83
-18 -3 -24 7 -41 62 -34 111 -52 226 -56 360 -3 71 -9 134 -14 139 -13 13 -37
-6 -102 -80 -121 -136 -231 -339 -273 -505 -35 -138 -52 -344 -37 -451 23
-165 79 -287 204 -442 103 -127 234 -215 397 -267 65 -20 95 -23 230 -23 148
0 159 2 242 31 119 43 211 99 309 191 196 184 277 396 266 693 -6 179 -30 277
-118 486 -34 82 -71 178 -83 214 -12 36 -25 65 -31 65 -23 0 -57 -98 -75 -216
-19 -124 -27 -146 -54 -136 -24 9 -96 141 -129 235 -27 77 -31 103 -35 227 -2
77 0 165 6 195 10 55 4 80 -21 80 -5 0 -59 -48 -119 -107z"/>
</g>
</svg>
