<?xml version="1.0" standalone="no"?>
<!DOCTYPE svg PUBLIC "-//W3C//DTD SVG 20010904//EN"
 "http://www.w3.org/TR/2001/REC-SVG-20010904/DTD/svg10.dtd">
<svg version="1.0" xmlns="http://www.w3.org/2000/svg"
 width="256.000000pt" height="256.000000pt" viewBox="0 0 256.000000 256.000000"
 preserveAspectRatio="xMidYMid meet">

<g transform="translate(0.000000,256.000000) scale(0.100000,-0.100000)"
fill="#000000" stroke="none">
<path d="M563 2286 c-230 -44 -417 -222 -477 -452 -22 -84 -22 -337 0 -441 23
-114 69 -230 126 -323 90 -146 163 -212 557 -498 198 -143 379 -271 403 -283
59 -30 157 -30 216 0 23 12 196 133 385 269 386 278 489 370 575 511 58 95
104 213 127 330 25 123 17 393 -14 481 -69 195 -231 347 -422 396 -77 20 -214
22 -289 5 -76 -18 -186 -72 -243 -120 -78 -65 -129 -137 -216 -303 l-81 -158
38 -67 38 -68 148 -52 c81 -29 161 -62 177 -74 41 -29 69 -88 69 -148 0 -61
-13 -97 -48 -134 -72 -77 -149 -79 -330 -9 -12 4 -11 -1 3 -26 21 -36 23 -30
-53 -168 l-40 -71 54 -94 c59 -103 64 -134 24 -134 -21 0 -34 15 -84 103 -51
91 -67 110 -131 158 -39 30 -76 54 -81 54 -5 0 -25 -18 -45 -40 -41 -44 -63
-50 -79 -20 -10 18 -3 28 46 80 31 33 64 60 73 60 9 0 52 -25 95 -56 42 -31
81 -53 85 -48 4 5 24 38 43 74 l35 66 -23 46 c-13 26 -28 49 -34 53 -5 3 -78
30 -161 60 -164 59 -198 81 -230 150 -34 73 -15 159 47 217 61 57 134 62 254
19 44 -16 80 -27 80 -25 0 3 -9 22 -20 44 -11 22 -20 46 -20 53 0 8 23 56 51
107 l51 93 -23 51 c-53 112 -165 224 -284 280 -120 57 -248 75 -372 52z m17
-161 c20 -24 6 -41 -64 -73 -37 -17 -91 -54 -120 -82 -58 -55 -89 -62 -94 -21
-5 32 85 117 169 159 72 36 91 39 109 17z m-310 -310 c10 -12 10 -25 0 -62
-17 -71 -35 -87 -63 -58 -12 11 -13 24 -5 62 15 71 40 92 68 58z m1577 -13 c6
-4 13 -30 15 -57 l3 -50 50 -5 c45 -5 50 -7 50 -30 0 -23 -5 -25 -50 -30 l-50
-5 -5 -50 c-5 -45 -7 -50 -30 -50 -23 0 -25 5 -30 50 l-5 50 -50 5 c-45 5 -50
7 -50 30 0 23 5 25 50 30 l50 5 3 45 c4 59 21 80 49 62z"/>
<path d="M1122 1513 c-23 -46 -64 -174 -59 -186 6 -16 240 -100 264 -95 9 2
28 39 49 97 28 77 32 97 22 107 -13 12 -236 94 -257 94 -6 0 -14 -8 -19 -17z"/>
</g>
</svg>
