<?xml version="1.0" standalone="no"?>
<!DOCTYPE svg PUBLIC "-//W3C//DTD SVG 20010904//EN"
 "http://www.w3.org/TR/2001/REC-SVG-20010904/DTD/svg10.dtd">
<svg version="1.0" xmlns="http://www.w3.org/2000/svg"
 width="256.000000pt" height="256.000000pt" viewBox="0 0 256.000000 256.000000"
 preserveAspectRatio="xMidYMid meet">

<g transform="translate(0.000000,256.000000) scale(0.100000,-0.100000)"
fill="#000000" stroke="none">
<path d="M244 2294 c-115 -76 -212 -142 -216 -148 -4 -6 -5 -18 -2 -26 11 -30
369 -570 381 -574 25 -10 41 6 68 70 l28 65 56 -1 c31 -1 62 -1 69 -1 7 1 26
30 42 65 l29 65 65 0 c73 0 86 4 86 29 0 21 -354 562 -379 580 -16 11 -44 -5
-227 -124z m235 -2 c36 -57 37 -63 11 -80 -18 -11 -23 -7 -55 41 l-35 52 21
18 c12 9 22 17 24 17 2 0 17 -22 34 -48z m-105 -77 l36 -55 -112 -74 -113 -74
-20 24 c-11 13 -29 37 -38 54 l-18 30 113 74 c62 41 113 75 114 75 1 1 18 -24
38 -54z m230 -115 l15 -27 -76 -48 -76 -48 -18 24 c-24 32 -43 68 -38 73 2 2
35 24 74 50 l70 46 16 -22 c9 -12 24 -34 33 -48z m-230 -116 l29 -46 -27 -24
c-30 -29 -32 -37 -11 -58 21 -20 30 -16 167 76 65 43 121 78 125 78 4 0 27
-30 51 -65 l42 -65 -39 0 c-59 0 -67 -6 -92 -72 l-22 -61 -62 6 c-33 3 -66 3
-72 -1 -5 -4 -19 -27 -30 -52 l-19 -45 -60 90 c-34 50 -77 116 -97 147 l-36
58 57 39 c31 22 59 40 62 40 3 1 18 -20 34 -45z"/>
<path d="M1148 2016 c-15 -33 -4 -56 27 -56 28 0 52 37 42 64 -10 26 -56 20
-69 -8z"/>
<path d="M1088 1903 c-8 -10 -35 -54 -58 -99 -47 -86 -48 -114 -6 -114 20 0
33 15 75 91 54 98 58 108 39 127 -17 17 -32 15 -50 -5z"/>
<path d="M1360 1745 c-20 -24 -8 -50 24 -50 36 0 56 26 37 49 -17 20 -45 21
-61 1z"/>
<path d="M1185 1658 c-92 -46 -109 -62 -94 -89 14 -27 34 -23 124 24 84 44
106 75 68 95 -14 8 -37 0 -98 -30z"/>
<path d="M69 1644 c-17 -20 -1 -48 31 -52 36 -6 51 26 24 52 -20 20 -38 20
-55 0z"/>
<path d="M932 1628 c-32 -32 0 -84 37 -61 24 15 21 67 -4 71 -11 1 -26 -3 -33
-10z"/>
<path d="M157 1593 c-4 -3 -7 -16 -7 -28 0 -17 17 -34 63 -64 70 -45 79 -48
97 -26 19 23 3 48 -58 88 -57 36 -82 44 -95 30z"/>
<path d="M61 1401 c-8 -15 -7 -23 5 -36 13 -12 34 -15 103 -13 l86 3 0 30 0
30 -92 3 c-83 2 -93 1 -102 -17z"/>
<path d="M299 1404 c-19 -23 1 -49 37 -49 20 0 30 6 32 18 8 40 -43 63 -69 31z"/>
<path d="M2094 1371 c-59 -27 -87 -72 -92 -146 -3 -50 0 -65 20 -94 33 -49 69
-72 121 -78 60 -7 110 11 146 52 79 90 53 218 -53 266 -52 23 -90 23 -142 0z
m117 -67 c17 -8 37 -30 45 -50 12 -29 12 -39 0 -68 -29 -70 -105 -88 -157 -37
-48 49 -36 125 26 159 28 16 51 15 86 -4z"/>
<path d="M1705 1369 c-38 -23 -276 -252 -291 -280 -40 -79 16 -169 106 -169
45 0 66 13 152 98 54 53 81 73 93 68 9 -3 15 -10 13 -16 -2 -5 -43 -53 -93
-106 -109 -118 -114 -126 -115 -189 0 -92 48 -140 172 -171 l70 -17 -69 -69
c-65 -66 -68 -70 -68 -118 0 -40 5 -54 29 -79 32 -33 71 -46 114 -36 30 6 296
245 318 287 18 31 17 83 -1 117 -13 27 -50 50 -103 66 l-24 7 23 24 22 24 53
-50 c49 -46 56 -50 103 -50 l51 0 124 116 c148 137 164 168 130 240 -27 57
-106 82 -161 51 -27 -15 -183 -166 -183 -178 0 -11 29 -39 41 -39 6 0 48 36
94 80 46 44 92 80 103 80 26 0 55 -34 48 -57 -10 -33 -222 -223 -248 -223 -15
0 -43 19 -78 55 -31 31 -63 55 -75 55 -31 0 -155 -117 -155 -145 0 -21 9 -27
73 -46 89 -28 115 -49 102 -83 -12 -31 -264 -266 -286 -266 -20 0 -49 31 -49
53 0 8 41 53 90 98 88 80 103 106 78 126 -7 6 -60 23 -118 38 -123 31 -150 51
-150 107 0 35 10 48 115 161 63 67 115 129 115 137 0 22 -92 110 -114 110 -10
0 -63 -43 -118 -95 -69 -67 -106 -95 -123 -95 -28 0 -49 31 -40 59 8 27 261
261 282 261 9 0 49 -31 89 -70 73 -71 115 -89 128 -55 9 24 0 36 -85 114 -68
63 -87 74 -122 78 -23 2 -51 -2 -62 -8z"/>
<path d="M239 1224 c-19 -23 1 -48 43 -52 43 -4 65 17 48 47 -13 26 -71 29
-91 5z"/>
<path d="M419 1224 c-9 -11 -10 -20 -2 -32 9 -15 53 -17 469 -20 417 -2 460
-1 471 14 9 12 9 22 2 35 -9 18 -31 19 -468 19 -406 0 -460 -2 -472 -16z"/>
<path d="M680 1015 c-6 -8 -10 -22 -8 -32 3 -17 22 -18 278 -18 264 0 275 1
278 19 8 42 -18 46 -284 46 -208 0 -254 -3 -264 -15z"/>
<path d="M355 857 c-3 -6 -4 -167 -3 -357 l3 -345 265 0 265 0 3 199 c2 138
-1 203 -9 212 -8 10 -36 14 -94 14 l-83 0 -5 33 c-3 17 -9 53 -13 79 -3 26
-11 51 -18 56 -6 5 -40 17 -76 26 -36 10 -93 35 -128 57 -65 40 -99 49 -107
26z m200 -148 c28 -6 51 -13 53 -14 1 -1 9 -39 17 -84 8 -45 17 -86 20 -91 3
-6 44 -10 91 -10 l84 0 0 -45 0 -45 -200 0 -200 0 0 60 0 60 60 0 c47 0 62 4
67 16 12 32 -11 49 -71 52 l-56 3 0 80 0 80 43 -25 c23 -14 65 -30 92 -37z
m-5 -424 l0 -65 -65 0 -65 0 0 65 0 65 65 0 65 0 0 -65z m270 0 l0 -65 -100 0
-100 0 0 65 0 65 100 0 100 0 0 -65z"/>
<path d="M1405 630 c-33 -34 -122 -109 -198 -166 -75 -58 -146 -114 -156 -125
-43 -47 -31 -137 22 -172 15 -10 46 -17 71 -17 40 0 55 9 187 107 155 116 319
268 319 295 0 10 -10 22 -21 29 -19 10 -30 3 -103 -69 -112 -109 -355 -292
-389 -292 -33 0 -52 31 -37 60 6 10 72 66 148 124 160 122 276 234 270 262 -2
12 -13 20 -28 22 -19 2 -39 -11 -85 -58z"/>
</g>
</svg>
