<?xml version="1.0" standalone="no"?>
<!DOCTYPE svg PUBLIC "-//W3C//DTD SVG 20010904//EN"
 "http://www.w3.org/TR/2001/REC-SVG-20010904/DTD/svg10.dtd">
<svg version="1.0" xmlns="http://www.w3.org/2000/svg"
 width="240.000000pt" height="240.000000pt" viewBox="0 0 240.000000 240.000000"
 preserveAspectRatio="xMidYMid meet">

<g transform="translate(0.000000,240.000000) scale(0.100000,-0.100000)"
fill="#000000" stroke="none">
<path d="M1120 2193 c-29 -11 -63 -49 -111 -121 -56 -85 -89 -167 -89 -220 1
-71 52 -148 124 -184 l29 -15 -66 -22 c-86 -29 -180 -90 -211 -138 -30 -45
-55 -141 -95 -363 -46 -250 -81 -502 -88 -630 l-6 -116 49 -43 c40 -35 178
-110 245 -134 14 -5 17 18 22 201 10 321 47 536 137 797 43 124 128 315 140
315 13 0 98 -194 144 -327 87 -256 123 -468 133 -785 5 -183 8 -206 22 -201
67 24 205 99 245 134 l49 43 -6 116 c-7 128 -42 380 -88 630 -40 222 -65 318
-95 363 -31 48 -125 109 -211 138 l-66 22 29 15 c72 36 123 113 124 184 0 53
-33 135 -89 220 -74 113 -88 123 -179 125 -42 1 -84 0 -92 -4z m80 -154 c14 0
40 3 58 6 20 5 38 3 46 -5 20 -16 76 -165 76 -200 0 -41 -34 -77 -111 -116
l-69 -34 -69 34 c-77 39 -111 75 -111 116 0 31 43 152 67 188 13 21 20 23 51
17 21 -3 48 -6 62 -6z"/>
<path d="M1152 1318 c-101 -255 -153 -472 -177 -740 l-6 -68 33 8 c43 9 353 9
396 0 l33 -8 -6 68 c-18 195 -57 396 -110 557 -37 114 -106 285 -115 285 -4 0
-26 -46 -48 -102z"/>
</g>
</svg>
